<?xml version="1.0" ?><svg viewBox="0 0 64 64" xmlns="http://www.w3.org/2000/svg"><defs><style>.cls-1{fill:#d2ddff;}.cls-2{fill:#bd53b5;}.cls-2,.cls-3{stroke:#4c241d;}.cls-2,.cls-3,.cls-4{stroke-linecap:round;stroke-linejoin:round;stroke-width:2px;}.cls-3,.cls-4{fill:none;}.cls-4{stroke:#e66353;}</style></defs><g id="qr"><circle class="cls-1" cx="24.5" cy="29.5" r="21.5"/><rect class="cls-2" height="6" width="6" x="15" y="15"/><rect class="cls-3" height="12" width="12" x="12" y="12"/><rect class="cls-2" height="6" width="6" x="15" y="45"/><rect class="cls-3" height="12" width="12" x="12" y="42"/><rect class="cls-2" height="6" width="6" x="45" y="15"/><rect class="cls-3" height="12" width="12" x="42" y="12"/><rect class="cls-3" height="48" width="48" x="9" y="9"/><polyline class="cls-3" points="51 61 61 61 61 51"/><polyline class="cls-3" points="15 5 5 5 5 15"/><polyline class="cls-3" points="15 61 5 61 5 51"/><polyline class="cls-3" points="51 5 61 5 61 15"/><line class="cls-3" x1="28" x2="39" y1="14" y2="14"/><polyline class="cls-3" points="30 19 30 26 37.639 26"/><line class="cls-3" x1="36" x2="36" y1="19" y2="21"/><polyline class="cls-3" points="22 27 13 27 13 29.5"/><line class="cls-3" x1="13" x2="13" y1="38" y2="36"/><line class="cls-3" x1="27" x2="27" y1="27" y2="30"/><line class="cls-3" x1="20" x2="24" y1="38" y2="38"/><line class="cls-3" x1="51" x2="43" y1="53" y2="53"/><line class="cls-3" x1="51" x2="51" y1="49" y2="46"/><line class="cls-3" x1="51" x2="51" y1="42" y2="39"/><polyline class="cls-3" points="54 28 50 28 50 35"/><line class="cls-3" x1="54" x2="54" y1="36" y2="39"/><polyline class="cls-3" points="45 45 39 45 39 39.273"/><line class="cls-3" x1="33" x2="33" y1="52" y2="42"/><polyline class="cls-3" points="33 35 33 38 28.407 38 28.407 46"/><line class="cls-3" x1="45" x2="45" y1="29" y2="41"/><line class="cls-3" x1="41" x2="41" y1="30" y2="27"/><line class="cls-4" x1="5" x2="61" y1="33" y2="33"/></g></svg>