<?xml version="1.0" encoding="utf-8"?>
<!-- Generator: Adobe Illustrator 16.0.0, SVG Export Plug-In . SVG Version: 6.00 Build 0)  -->
<!DOCTYPE svg PUBLIC "-//W3C//DTD SVG 1.1//EN" "http://www.w3.org/Graphics/SVG/1.1/DTD/svg11.dtd">
<svg version="1.1" id="Layer_1" xmlns="http://www.w3.org/2000/svg" xmlns:xlink="http://www.w3.org/1999/xlink" x="0px" y="0px"
	 width="64px" height="64px" viewBox="0 0 64 64" enable-background="new 0 0 64 64" xml:space="preserve">
<g id="Rectangle_36">
	<g>
		<rect x="11" y="32" fill="#91C9ED" width="10" height="22"/>
	</g>
</g>
<g id="Rectangle_36_copy">
	<g>
		<rect x="27" y="22" fill="#F37D7E" width="10" height="32"/>
	</g>
</g>
<g id="Rectangle_36_copy_2">
	<g>
		<rect x="43" y="12" fill="#91C9ED" width="10" height="42"/>
	</g>
</g>
<g id="Rounded_Rectangle_10">
	<g>
		<path fill="#2B3139" d="M63,53h-9V13c0-1.104-0.896-2-2-2h-8c-1.104,0-2,0.896-2,2v40h-4V23c0-1.104-0.896-2-2-2h-8
			c-1.104,0-2,0.896-2,2v30h-4V33c0-1.104-0.896-2-2-2h-8c-1.104,0-2,0.896-2,2v20H1c-0.553,0-1,0.447-1,1c0,0.552,0.447,1,1,1h62
			c0.553,0,1-0.448,1-1C64,53.447,63.553,53,63,53z M16,53V36c0-0.553-0.447-1-1-1s-1,0.447-1,1v17h-2V33h8v20H16z M32,53V26
			c0-0.553-0.447-1-1-1s-1,0.447-1,1v27h-2V23h8v30H32z M48,53V16c0-0.553-0.447-1-1-1s-1,0.447-1,1v37h-2V13h8v40H48z"/>
	</g>
</g>
<g id="Rounded_Rectangle_12_1_">
	<g>
		<path fill="#2B3139" d="M23.93,9.649c-0.014-0.036-0.033-0.067-0.051-0.101c-0.036-0.07-0.078-0.134-0.129-0.192
			c-0.028-0.033-0.056-0.064-0.088-0.094c-0.061-0.054-0.127-0.096-0.198-0.134c-0.032-0.018-0.059-0.04-0.093-0.054
			C23.256,9.028,23.132,9,23,9c-0.016,0-0.029,0.008-0.045,0.009C22.936,9.01,22.918,8.999,22.898,9H17c-0.553,0-1,0.447-1,1
			c0,0.552,0.447,1,1,1h3.535L10.283,21.252c-0.396,0.396-0.396,1.037,0,1.434c0.396,0.396,1.037,0.396,1.434,0L22,12.401V16
			c0,0.552,0.447,1,1,1s1-0.448,1-1v-6C24,9.875,23.971,9.76,23.93,9.649z"/>
	</g>
</g>
</svg>
